# xmcd
#
# Track frame offsets:
#	150
#	16535
#	26259
#	37069
#	51769
#	76169
#	98075
#	111135
#	130341
#	143684
#	160630
#	183083
#
# Disc length: 2754 seconds
#
# Revision: 0
# Processed by: cddbd v1.5.2PL0 Copyright (c) Steve Scherf et al.
# Submitted via: dBpowerAMP V4.0
#
DISCID=830ac00c
DTITLE=경배와 찬양 - 새노래 컬렉션 6
DYEAR=2006
DGENRE=Blues
TTITLE0=찬양 받기에 합당하신 주님
TTITLE1=찬양 찬양 할렐루야
TTITLE2=크고 놀라운 일 행하신 주님
TTITLE3=평강이 있을지어다
TTITLE4=평화의 도구로 써 주소서
TTITLE5=하나님은 우리의 피난처가 되시며
TTITLE6=하늘에는 주께 영광
TTITLE7=하늘이 선포하고 (외치세)
TTITLE8=하늘이여 기뻐하라
TTITLE9=할렐루야 호산나
TTITLE10=함께 (당신이 내게)
TTITLE11=형제가 연합해 동거할 때
EXTD=
EXTT0=
EXTT1=
EXTT2=
EXTT3=
EXTT4=
EXTT5=
EXTT6=
EXTT7=
EXTT8=
EXTT9=
EXTT10=
EXTT11=
PLAYORDER=
